<svg xmlns="http://www.w3.org/2000/svg" viewBox="-30 740 1929.1015625 1030" width="1929.1015625" height="1030" shape-rendering="geometricPrecision"><style>
    text {
      font-family: Inter, system-ui, Avenir, Helvetica, Arial, sans-serif;
    }
  </style><g><g transform="translate(190, 800)"><svg width="590" height="610" viewBox="0 0 590 610" overflow="visible"><g><rect stroke="#000000" fill="#ffffff" stroke-width="2" x="0" y="0" width="590" height="610"></rect><g transform="translate(558, 8)"><path d="M 4.8 0 L 24 0 L 24 24 L 4.8 24 L 4.8 19.2 L 0 19.2 L 0 14.4 L 4.8 14.4 L 4.8 9.6 L 0 9.6 L 0 4.8 L 4.8 4.8 Z" stroke-width="1.5" stroke-miterlimit="10" stroke="#000000" fill="none"></path><path d="M 4.8 4.8 L 9.6 4.8 L 9.6 9.6 L 4.8 9.6 M 4.8 14.4 L 9.6 14.4 L 9.6 19.2 L 4.8 19.2" stroke-width="1.5" stroke-miterlimit="10" stroke="#000000" fill="none"></path></g><text x="295" y="22.5" fill="#000000" dominant-baseline="middle" text-anchor="middle" font-weight="bold" font-family="Inter, system-ui, Avenir, Helvetica, Arial, sans-serif" font-size="0.8em">«subsystem»</text><text x="295" y="41" text-anchor="middle" dominant-baseline="middle" font-size="16px" font-weight="bold" font-family="Inter, system-ui, Avenir, Helvetica, Arial, sans-serif" fill="#000000" aria-label="Kontor"><tspan x="295" y="41" aria-hidden="true">Kontor</tspan></text></g></svg></g><g transform="translate(530, 880)"><svg width="180" height="120" viewBox="0 0 180 120" overflow="visible"><g><rect stroke="#000000" fill="#ffffff" stroke-width="2" x="0" y="0" width="180" height="120"></rect><g transform="translate(148, 8)"><path d="M 4.8 0 L 24 0 L 24 24 L 4.8 24 L 4.8 19.2 L 0 19.2 L 0 14.4 L 4.8 14.4 L 4.8 9.6 L 0 9.6 L 0 4.8 L 4.8 4.8 Z" stroke-width="1.5" stroke-miterlimit="10" stroke="#000000" fill="none"></path><path d="M 4.8 4.8 L 9.6 4.8 L 9.6 9.6 L 4.8 9.6 M 4.8 14.4 L 9.6 14.4 L 9.6 19.2 L 4.8 19.2" stroke-width="1.5" stroke-miterlimit="10" stroke="#000000" fill="none"></path></g><text x="90" y="48.5" fill="#000000" dominant-baseline="middle" text-anchor="middle" font-weight="bold" font-family="Inter, system-ui, Avenir, Helvetica, Arial, sans-serif" font-size="0.8em">«component»</text><text x="90" y="69.5" text-anchor="middle" dominant-baseline="middle" font-size="16px" font-weight="bold" font-family="Inter, system-ui, Avenir, Helvetica, Arial, sans-serif" fill="#000000" aria-label="Portfolio"><tspan x="90" y="69.5" aria-hidden="true">Portfolio</tspan></text></g></svg></g><g transform="translate(240, 880)"><svg width="180" height="120" viewBox="0 0 180 120" overflow="visible"><g><rect stroke="#000000" fill="#ffffff" stroke-width="2" x="0" y="0" width="180" height="120"></rect><g transform="translate(148, 8)"><path d="M 4.8 0 L 24 0 L 24 24 L 4.8 24 L 4.8 19.2 L 0 19.2 L 0 14.4 L 4.8 14.4 L 4.8 9.6 L 0 9.6 L 0 4.8 L 4.8 4.8 Z" stroke-width="1.5" stroke-miterlimit="10" stroke="#000000" fill="none"></path><path d="M 4.8 4.8 L 9.6 4.8 L 9.6 9.6 L 4.8 9.6 M 4.8 14.4 L 9.6 14.4 L 9.6 19.2 L 4.8 19.2" stroke-width="1.5" stroke-miterlimit="10" stroke="#000000" fill="none"></path></g><text x="90" y="48.5" fill="#000000" dominant-baseline="middle" text-anchor="middle" font-weight="bold" font-family="Inter, system-ui, Avenir, Helvetica, Arial, sans-serif" font-size="0.8em">«component»</text><text x="90" y="69.5" text-anchor="middle" dominant-baseline="middle" font-size="16px" font-weight="bold" font-family="Inter, system-ui, Avenir, Helvetica, Arial, sans-serif" fill="#000000" aria-label="Transactions"><tspan x="90" y="69.5" aria-hidden="true">Transactions</tspan></text></g></svg></g><g transform="translate(540, 1140)"><svg width="180" height="120" viewBox="0 0 180 120" overflow="visible"><g><rect stroke="#000000" fill="#ffffff" stroke-width="2" x="0" y="0" width="180" height="120"></rect><g transform="translate(148, 8)"><path d="M 4.8 0 L 24 0 L 24 24 L 4.8 24 L 4.8 19.2 L 0 19.2 L 0 14.4 L 4.8 14.4 L 4.8 9.6 L 0 9.6 L 0 4.8 L 4.8 4.8 Z" stroke-width="1.5" stroke-miterlimit="10" stroke="#000000" fill="none"></path><path d="M 4.8 4.8 L 9.6 4.8 L 9.6 9.6 L 4.8 9.6 M 4.8 14.4 L 9.6 14.4 L 9.6 19.2 L 4.8 19.2" stroke-width="1.5" stroke-miterlimit="10" stroke="#000000" fill="none"></path></g><text x="90" y="48.5" fill="#000000" dominant-baseline="middle" text-anchor="middle" font-weight="bold" font-family="Inter, system-ui, Avenir, Helvetica, Arial, sans-serif" font-size="0.8em">«component»</text><text x="90" y="69.5" text-anchor="middle" dominant-baseline="middle" font-size="16px" font-weight="bold" font-family="Inter, system-ui, Avenir, Helvetica, Arial, sans-serif" fill="#000000" aria-label="Tax"><tspan x="90" y="69.5" aria-hidden="true">Tax</tspan></text></g></svg></g><g transform="translate(280, 1250)"><svg width="180" height="120" viewBox="0 0 180 120" overflow="visible"><g><rect stroke="#000000" fill="#ffffff" stroke-width="2" x="0" y="0" width="180" height="120"></rect><g transform="translate(148, 8)"><path d="M 4.8 0 L 24 0 L 24 24 L 4.8 24 L 4.8 19.2 L 0 19.2 L 0 14.4 L 4.8 14.4 L 4.8 9.6 L 0 9.6 L 0 4.8 L 4.8 4.8 Z" stroke-width="1.5" stroke-miterlimit="10" stroke="#000000" fill="none"></path><path d="M 4.8 4.8 L 9.6 4.8 L 9.6 9.6 L 4.8 9.6 M 4.8 14.4 L 9.6 14.4 L 9.6 19.2 L 4.8 19.2" stroke-width="1.5" stroke-miterlimit="10" stroke="#000000" fill="none"></path></g><text x="90" y="48.5" fill="#000000" dominant-baseline="middle" text-anchor="middle" font-weight="bold" font-family="Inter, system-ui, Avenir, Helvetica, Arial, sans-serif" font-size="0.8em">«component»</text><text x="90" y="69.5" text-anchor="middle" dominant-baseline="middle" font-size="16px" font-weight="bold" font-family="Inter, system-ui, Avenir, Helvetica, Arial, sans-serif" fill="#000000" aria-label="Budgeting"><tspan x="90" y="69.5" aria-hidden="true">Budgeting</tspan></text></g></svg></g><g transform="translate(980, 800)"><svg width="610" height="250" viewBox="0 0 610 250" overflow="visible"><g><rect stroke="#000000" fill="#ffffff" stroke-width="2" x="0" y="0" width="610" height="250"></rect><g transform="translate(578, 8)"><path d="M 4.8 0 L 24 0 L 24 24 L 4.8 24 L 4.8 19.2 L 0 19.2 L 0 14.4 L 4.8 14.4 L 4.8 9.6 L 0 9.6 L 0 4.8 L 4.8 4.8 Z" stroke-width="1.5" stroke-miterlimit="10" stroke="#000000" fill="none"></path><path d="M 4.8 4.8 L 9.6 4.8 L 9.6 9.6 L 4.8 9.6 M 4.8 14.4 L 9.6 14.4 L 9.6 19.2 L 4.8 19.2" stroke-width="1.5" stroke-miterlimit="10" stroke="#000000" fill="none"></path></g><text x="305" y="22.5" fill="#000000" dominant-baseline="middle" text-anchor="middle" font-weight="bold" font-family="Inter, system-ui, Avenir, Helvetica, Arial, sans-serif" font-size="0.8em">«subsystem»</text><text x="305" y="41" text-anchor="middle" dominant-baseline="middle" font-size="16px" font-weight="bold" font-family="Inter, system-ui, Avenir, Helvetica, Arial, sans-serif" fill="#000000" aria-label="Kontor AI"><tspan x="305" y="41" aria-hidden="true">Kontor AI</tspan></text></g></svg></g><g transform="translate(1020, 890)"><svg width="180" height="120" viewBox="0 0 180 120" overflow="visible"><g><rect stroke="#000000" fill="#ffffff" stroke-width="2" x="0" y="0" width="180" height="120"></rect><g transform="translate(148, 8)"><path d="M 4.8 0 L 24 0 L 24 24 L 4.8 24 L 4.8 19.2 L 0 19.2 L 0 14.4 L 4.8 14.4 L 4.8 9.6 L 0 9.6 L 0 4.8 L 4.8 4.8 Z" stroke-width="1.5" stroke-miterlimit="10" stroke="#000000" fill="none"></path><path d="M 4.8 4.8 L 9.6 4.8 L 9.6 9.6 L 4.8 9.6 M 4.8 14.4 L 9.6 14.4 L 9.6 19.2 L 4.8 19.2" stroke-width="1.5" stroke-miterlimit="10" stroke="#000000" fill="none"></path></g><text x="90" y="48.5" fill="#000000" dominant-baseline="middle" text-anchor="middle" font-weight="bold" font-family="Inter, system-ui, Avenir, Helvetica, Arial, sans-serif" font-size="0.8em">«component»</text><text x="90" y="69.5" text-anchor="middle" dominant-baseline="middle" font-size="16px" font-weight="bold" font-family="Inter, system-ui, Avenir, Helvetica, Arial, sans-serif" fill="#000000" aria-label="Advisor"><tspan x="90" y="69.5" aria-hidden="true">Advisor</tspan></text></g></svg></g><g transform="translate(900, 1280)"><svg width="690" height="430" viewBox="0 0 690 430" overflow="visible"><g><rect stroke="#000000" fill="#ffffff" stroke-width="2" x="0" y="0" width="690" height="430"></rect><g transform="translate(658, 8)"><path d="M 4.8 0 L 24 0 L 24 24 L 4.8 24 L 4.8 19.2 L 0 19.2 L 0 14.4 L 4.8 14.4 L 4.8 9.6 L 0 9.6 L 0 4.8 L 4.8 4.8 Z" stroke-width="1.5" stroke-miterlimit="10" stroke="#000000" fill="none"></path><path d="M 4.8 4.8 L 9.6 4.8 L 9.6 9.6 L 4.8 9.6 M 4.8 14.4 L 9.6 14.4 L 9.6 19.2 L 4.8 19.2" stroke-width="1.5" stroke-miterlimit="10" stroke="#000000" fill="none"></path></g><text x="345" y="22.5" fill="#000000" dominant-baseline="middle" text-anchor="middle" font-weight="bold" font-family="Inter, system-ui, Avenir, Helvetica, Arial, sans-serif" font-size="0.8em">«subsystem»</text><text x="345" y="41" text-anchor="middle" dominant-baseline="middle" font-size="16px" font-weight="bold" font-family="Inter, system-ui, Avenir, Helvetica, Arial, sans-serif" fill="#000000" aria-label="Market News &amp; Research"><tspan x="345" y="41" aria-hidden="true">Market News &amp; Research</tspan></text></g></svg></g><g transform="translate(1350, 1550)"><svg width="180" height="120" viewBox="0 0 180 120" overflow="visible"><g><rect stroke="#000000" fill="#ffffff" stroke-width="2" x="0" y="0" width="180" height="120"></rect><g transform="translate(148, 8)"><path d="M 4.8 0 L 24 0 L 24 24 L 4.8 24 L 4.8 19.2 L 0 19.2 L 0 14.4 L 4.8 14.4 L 4.8 9.6 L 0 9.6 L 0 4.8 L 4.8 4.8 Z" stroke-width="1.5" stroke-miterlimit="10" stroke="#000000" fill="none"></path><path d="M 4.8 4.8 L 9.6 4.8 L 9.6 9.6 L 4.8 9.6 M 4.8 14.4 L 9.6 14.4 L 9.6 19.2 L 4.8 19.2" stroke-width="1.5" stroke-miterlimit="10" stroke="#000000" fill="none"></path></g><text x="90" y="48.5" fill="#000000" dominant-baseline="middle" text-anchor="middle" font-weight="bold" font-family="Inter, system-ui, Avenir, Helvetica, Arial, sans-serif" font-size="0.8em">«component»</text><text x="90" y="69.5" text-anchor="middle" dominant-baseline="middle" font-size="16px" font-weight="bold" font-family="Inter, system-ui, Avenir, Helvetica, Arial, sans-serif" fill="#000000" aria-label="News Aggregator"><tspan x="90" y="69.5" aria-hidden="true">News Aggregator</tspan></text></g></svg></g><g transform="translate(950, 1380)"><svg width="180" height="120" viewBox="0 0 180 120" overflow="visible"><g><rect stroke="#000000" fill="#ffffff" stroke-width="2" x="0" y="0" width="180" height="120"></rect><g transform="translate(148, 8)"><path d="M 4.8 0 L 24 0 L 24 24 L 4.8 24 L 4.8 19.2 L 0 19.2 L 0 14.4 L 4.8 14.4 L 4.8 9.6 L 0 9.6 L 0 4.8 L 4.8 4.8 Z" stroke-width="1.5" stroke-miterlimit="10" stroke="#000000" fill="none"></path><path d="M 4.8 4.8 L 9.6 4.8 L 9.6 9.6 L 4.8 9.6 M 4.8 14.4 L 9.6 14.4 L 9.6 19.2 L 4.8 19.2" stroke-width="1.5" stroke-miterlimit="10" stroke="#000000" fill="none"></path></g><text x="90" y="48.5" fill="#000000" dominant-baseline="middle" text-anchor="middle" font-weight="bold" font-family="Inter, system-ui, Avenir, Helvetica, Arial, sans-serif" font-size="0.8em">«component»</text><text x="90" y="69.5" text-anchor="middle" dominant-baseline="middle" font-size="16px" font-weight="bold" font-family="Inter, system-ui, Avenir, Helvetica, Arial, sans-serif" fill="#000000" aria-label="Stock Search"><tspan x="90" y="69.5" aria-hidden="true">Stock Search</tspan></text></g></svg></g><g transform="translate(950, 1550)"><svg width="180" height="120" viewBox="0 0 180 120" overflow="visible"><g><rect stroke="#000000" fill="#ffffff" stroke-width="2" x="0" y="0" width="180" height="120"></rect><g transform="translate(148, 8)"><path d="M 4.8 0 L 24 0 L 24 24 L 4.8 24 L 4.8 19.2 L 0 19.2 L 0 14.4 L 4.8 14.4 L 4.8 9.6 L 0 9.6 L 0 4.8 L 4.8 4.8 Z" stroke-width="1.5" stroke-miterlimit="10" stroke="#000000" fill="none"></path><path d="M 4.8 4.8 L 9.6 4.8 L 9.6 9.6 L 4.8 9.6 M 4.8 14.4 L 9.6 14.4 L 9.6 19.2 L 4.8 19.2" stroke-width="1.5" stroke-miterlimit="10" stroke="#000000" fill="none"></path></g><text x="90" y="48.5" fill="#000000" dominant-baseline="middle" text-anchor="middle" font-weight="bold" font-family="Inter, system-ui, Avenir, Helvetica, Arial, sans-serif" font-size="0.8em">«component»</text><text x="90" y="69.5" text-anchor="middle" dominant-baseline="middle" font-size="16px" font-weight="bold" font-family="Inter, system-ui, Avenir, Helvetica, Arial, sans-serif" fill="#000000" aria-label="Watchlist"><tspan x="90" y="69.5" aria-hidden="true">Watchlist</tspan></text></g></svg></g><g transform="translate(1370, 890)"><svg width="180" height="120" viewBox="0 0 180 120" overflow="visible"><g><rect stroke="#000000" fill="#ffffff" stroke-width="2" x="0" y="0" width="180" height="120"></rect><g transform="translate(148, 8)"><path d="M 4.8 0 L 24 0 L 24 24 L 4.8 24 L 4.8 19.2 L 0 19.2 L 0 14.4 L 4.8 14.4 L 4.8 9.6 L 0 9.6 L 0 4.8 L 4.8 4.8 Z" stroke-width="1.5" stroke-miterlimit="10" stroke="#000000" fill="none"></path><path d="M 4.8 4.8 L 9.6 4.8 L 9.6 9.6 L 4.8 9.6 M 4.8 14.4 L 9.6 14.4 L 9.6 19.2 L 4.8 19.2" stroke-width="1.5" stroke-miterlimit="10" stroke="#000000" fill="none"></path></g><text x="90" y="48.5" fill="#000000" dominant-baseline="middle" text-anchor="middle" font-weight="bold" font-family="Inter, system-ui, Avenir, Helvetica, Arial, sans-serif" font-size="0.8em">«component»</text><text x="90" y="69.5" text-anchor="middle" dominant-baseline="middle" font-size="16px" font-weight="bold" font-family="Inter, system-ui, Avenir, Helvetica, Arial, sans-serif" fill="#000000" aria-label="News Processor"><tspan x="90" y="69.5" aria-hidden="true">News Processor</tspan></text></g></svg></g><g transform="translate(30, 860)"><svg width="30" height="30" viewBox="0 0 30 30" overflow="visible"><g><circle cx="15" cy="15" r="15" stroke-width="2" stroke="#000000" fill="#ffffff"></circle><text x="32" y="-10" fill="#000000" dominant-baseline="hanging" text-anchor="start" font-weight="bold" font-family="Inter, system-ui, Avenir, Helvetica, Arial, sans-serif" font-size="16px">CSV Import</text></g></svg></g><g transform="translate(630, 1080)"><svg width="30" height="30" viewBox="0 0 30 30" overflow="visible"><g><circle cx="15" cy="15" r="15" stroke-width="2" stroke="#000000" fill="#ffffff"></circle><text x="32" y="-10" fill="#000000" dominant-baseline="hanging" text-anchor="start" font-weight="bold" font-family="Inter, system-ui, Avenir, Helvetica, Arial, sans-serif" font-size="16px">Asset Service</text></g></svg></g><g transform="translate(280, 1150)"><svg width="30" height="30" viewBox="0 0 30 30" overflow="visible"><g><circle cx="15" cy="15" r="15" stroke-width="2" stroke="#000000" fill="#ffffff"></circle><text x="32" y="-10" fill="#000000" dominant-baseline="hanging" text-anchor="start" font-weight="bold" font-family="Inter, system-ui, Avenir, Helvetica, Arial, sans-serif" font-size="16px">Transaction Service</text></g></svg></g><g transform="translate(1390, 1420)"><svg width="30" height="30" viewBox="0 0 30 30" overflow="visible"><g><circle cx="15" cy="15" r="15" stroke-width="2" stroke="#000000" fill="#ffffff"></circle><text x="32" y="-10" fill="#000000" dominant-baseline="hanging" text-anchor="start" font-weight="bold" font-family="Inter, system-ui, Avenir, Helvetica, Arial, sans-serif" font-size="16px">News Service</text></g></svg></g><g transform="translate(1200, 1390)"><svg width="30" height="30" viewBox="0 0 30 30" overflow="visible"><g><circle cx="15" cy="15" r="15" stroke-width="2" stroke="#000000" fill="#ffffff"></circle><text x="32" y="-10" fill="#000000" dominant-baseline="hanging" text-anchor="start" font-weight="bold" font-family="Inter, system-ui, Avenir, Helvetica, Arial, sans-serif" font-size="16px">Stock Service</text></g></svg></g><g transform="translate(1700, 1560)"><svg width="30" height="30" viewBox="0 0 30 30" overflow="visible"><g><circle cx="15" cy="15" r="15" stroke-width="2" stroke="#000000" fill="#ffffff"></circle><text x="32" y="-10" fill="#000000" dominant-baseline="hanging" text-anchor="start" font-weight="bold" font-family="Inter, system-ui, Avenir, Helvetica, Arial, sans-serif" font-size="16px">News Service</text></g></svg></g><g transform="translate(1270, 870)"><svg width="30" height="30" viewBox="0 0 30 30" overflow="visible"><g><circle cx="15" cy="15" r="15" stroke-width="2" stroke="#000000" fill="#ffffff"></circle><text x="32" y="-10" fill="#000000" dominant-baseline="hanging" text-anchor="start" font-weight="bold" font-family="Inter, system-ui, Avenir, Helvetica, Arial, sans-serif" font-size="16px">News Search Service</text></g></svg></g></g><g><path id="0f1c7053-975e-4dfd-90dc-e0b2baefb966" d="M 239 940 L 150 940 L 150 875 L 61 875" fill="none" class="react-flow__edge-path" stroke-width="2" stroke="#000000" opacity="1" stroke-opacity="1"></path><path id="1226ed0d-a20d-4077-9da2-04c203cc4b00" d="M 674 1001 L 674 1040 L 645 1040 L 645 1079" fill="none" class="react-flow__edge-path" stroke-width="2" stroke="#000000" opacity="1" stroke-opacity="1"></path><path id="9baf8607-8659-460b-8f8f-caecf0e71db7" d="M 539 1200 L 427 1200 L 427 1165 L 315 1165" fill="none" class="react-flow__edge-path" stroke-width="2" stroke="#000000" opacity="1" stroke-opacity="1"></path><path d="M309.4350288425444,1178.4350288425444 A19,19 0 0,0 309.4350288425444,1151.5649711574556" fill="none" stroke="#000000" stroke-width="2" data-inline-marker="true"></path><path id="046c6402-72c3-4a30-8bb7-89060f9d2094" d="M 330 1001 L 330 1031 L 249 1031 L 249 1165 L 279 1165" fill="none" class="react-flow__edge-path" stroke-width="2" stroke="#000000" opacity="1" stroke-opacity="1"></path><path id="4a48800b-2f4c-4825-9da6-f8cf2a1a7940" d="M 1056 1011 L 1056 1095 L 665 1095" fill="none" class="react-flow__edge-path" stroke-width="2" stroke="#000000" opacity="1" stroke-opacity="1"></path><path d="M650.9175618569479,1113.3525906994923 A19,19 0 0,0 650.9175618569479,1076.6474093005077" fill="none" stroke="#000000" stroke-width="2" data-inline-marker="true"></path><path id="a269d209-10a2-4dd3-84f0-406a2a7184c8" d="M 1440 1549 L 1440 1500 L 1405 1500 L 1405 1451" fill="none" class="react-flow__edge-path" stroke-width="2" stroke="#000000" opacity="1" stroke-opacity="1"></path><path id="8db9ec0e-8e55-41ec-8479-f65e48b0b9a8" d="M 1460 1011 L 1460 1213 L 1405 1213 L 1405 1415" fill="none" class="react-flow__edge-path" stroke-width="2" stroke="#000000" opacity="1" stroke-opacity="1"></path><path d="M1418.4350288425444,1420.5649711574556 A19,19 0 0,0 1391.5649711574556,1420.5649711574556" fill="none" stroke="#000000" stroke-width="2" data-inline-marker="true"></path><path id="459620c0-80f4-4156-b475-f921ad14011c" d="M 1131 1440 L 1165 1440 L 1165 1405 L 1199 1405" fill="none" class="react-flow__edge-path" stroke-width="2" stroke="#000000" opacity="1" stroke-opacity="1"></path><path id="89716f35-0aa0-4479-9f37-ff14164c7955" d="M 1131 1610 L 1215 1610 L 1215 1425" fill="none" class="react-flow__edge-path" stroke-width="2" stroke="#000000" opacity="1" stroke-opacity="1"></path><path d="M1196.6474093005077,1410.917561856948 A19,19 0 0,0 1233.3525906994923,1410.917561856948" fill="none" stroke="#000000" stroke-width="2" data-inline-marker="true"></path><path id="7b564040-d92a-4eff-a7f6-32f12922839a" d="M 370 1249 L 370 1217 L 295 1217 L 295 1185" fill="none" class="react-flow__edge-path" stroke-width="2" stroke="#000000" opacity="1" stroke-opacity="1"></path><path d="M281.5649711574556,1179.4350288425444 A19,19 0 0,0 308.4350288425444,1179.4350288425444" fill="none" stroke="#000000" stroke-width="2" data-inline-marker="true"></path><path id="aeb43367-245f-464d-bf44-946e7dd36643" d="M 566 1001 L 566 1073 L 295 1073 L 295 1145" fill="none" class="react-flow__edge-path" stroke-width="2" stroke="#000000" opacity="1" stroke-opacity="1"></path><path d="M308.4350288425444,1150.5649711574556 A19,19 0 0,0 281.5649711574556,1150.5649711574556" fill="none" stroke="#000000" stroke-width="2" data-inline-marker="true"></path><path id="f36b8921-ae81-4313-b0c7-d27933ef796d" d="M 1531 1610 L 1613 1610 L 1613 1575 L 1695 1575" fill="none" class="react-flow__edge-path" stroke-width="2" stroke="#000000" opacity="1" stroke-opacity="1"></path><path d="M1709.082438143052,1556.6474093005077 A19,19 0 0,0 1709.082438143052,1593.3525906994923" fill="none" stroke="#000000" stroke-width="2" data-inline-marker="true"></path><path id="5071eaeb-9aca-4c2e-8ae1-679b5bf5d2cb" d="M 1131 1646 L 1258 1646 L 1258 1435 L 1385 1435" fill="none" class="react-flow__edge-path" stroke-width="2" stroke="#000000" opacity="1" stroke-opacity="1"></path><path d="M1390.5649711574556,1421.5649711574556 A19,19 0 0,0 1390.5649711574556,1448.4350288425444" fill="none" stroke="#000000" stroke-width="2" data-inline-marker="true"></path><path id="d3543e2a-3cf0-4131-851f-7fa3cc1bb77e" d="M 1201 950 L 1233 950 L 1233 885 L 1265 885" fill="none" class="react-flow__edge-path" stroke-width="2" stroke="#000000" opacity="1" stroke-opacity="1"></path><path d="M1279.082438143052,866.6474093005077 A19,19 0 0,0 1279.082438143052,903.3525906994923" fill="none" stroke="#000000" stroke-width="2" data-inline-marker="true"></path><path id="ddd0d1f5-05da-4265-96b9-98c9d8c0f92c" d="M 1301 885 L 1335 885 L 1335 950 L 1369 950" fill="none" class="react-flow__edge-path" stroke-width="2" stroke="#000000" opacity="1" stroke-opacity="1"></path><path id="b6c6540c-aa19-40ba-826e-f0156f20165a" d="M 1110 1011 L 1110 1164 L 721 1164" fill="none" class="react-flow__edge-path" stroke-width="2" stroke="#000000" opacity="1" stroke-opacity="1" stroke-dasharray="10"></path><path d="M739,1172 L721,1164 L739,1156" fill="none" stroke="#000000" stroke-width="1.5" stroke-linecap="round" stroke-linejoin="round" data-inline-marker="true"></path><path id="0d02e0ae-1645-456c-b94f-0e5e06384e59" d="M 1164 1011 L 1164 1195 L 1040 1195 L 1040 1379" fill="none" class="react-flow__edge-path" stroke-width="2" stroke="#000000" opacity="1" stroke-opacity="1" stroke-dasharray="10"></path><path d="M1048,1361 L1040,1379 L1032,1361" fill="none" stroke="#000000" stroke-width="1.5" stroke-linecap="round" stroke-linejoin="round" data-inline-marker="true"></path></g></svg>