<svg xmlns="http://www.w3.org/2000/svg" viewBox="-150 -100 1830 1580" width="1830" height="1580" shape-rendering="geometricPrecision"><style>
    text {
      font-family: Inter, system-ui, Avenir, Helvetica, Arial, sans-serif;
    }
  </style><g><g transform="translate(60, -40)"><svg width="1560" height="1460" viewBox="0 0 1560 1460" overflow="visible"><g><rect stroke="#000000" fill="#ffffff" stroke-width="2" x="0" y="0" width="1560" height="1460"></rect><text x="780" y="22" text-anchor="middle" dominant-baseline="middle" font-size="16px" font-weight="600" font-family="Inter, system-ui, Avenir, Helvetica, Arial, sans-serif" fill="#000000" aria-label="Kontor"><tspan x="780" y="22" aria-hidden="true">Kontor</tspan></text></g></svg></g><g transform="translate(230, 0)"><svg width="860" height="620" viewBox="0 0 860 620" overflow="visible"><g><rect stroke="#000000" fill="#ffffff" stroke-width="2" x="0" y="0" width="860" height="620"></rect><text x="430" y="22" text-anchor="middle" dominant-baseline="middle" font-size="16px" font-weight="600" font-family="Inter, system-ui, Avenir, Helvetica, Arial, sans-serif" fill="#000000" aria-label="Portfolio Management"><tspan x="430" y="22" aria-hidden="true">Portfolio Management</tspan></text></g></svg></g><g transform="translate(550, 670)"><svg width="1040" height="260" viewBox="0 0 1040 260" overflow="visible"><g><rect stroke="#000000" fill="#ffffff" stroke-width="2" x="0" y="0" width="1040" height="260"></rect><text x="520" y="22" text-anchor="middle" dominant-baseline="middle" font-size="16px" font-weight="600" font-family="Inter, system-ui, Avenir, Helvetica, Arial, sans-serif" fill="#000000" aria-label="Financial Research"><tspan x="520" y="22" aria-hidden="true">Financial Research</tspan></text></g></svg></g><g transform="translate(730, 1060)"><svg width="770" height="170" viewBox="0 0 770 170" overflow="visible"><g><rect stroke="#000000" fill="#ffffff" stroke-width="2" x="0" y="0" width="770" height="170"></rect><text x="385" y="22" text-anchor="middle" dominant-baseline="middle" font-size="16px" font-weight="600" font-family="Inter, system-ui, Avenir, Helvetica, Arial, sans-serif" fill="#000000" aria-label="Tax Reporting"><tspan x="385" y="22" aria-hidden="true">Tax Reporting</tspan></text></g></svg></g><g transform="translate(100, 1150)"><svg width="550" height="240" viewBox="0 0 550 240" overflow="visible"><g><rect stroke="#000000" fill="#ffffff" stroke-width="2" x="0" y="0" width="550" height="240"></rect><text x="275" y="22" text-anchor="middle" dominant-baseline="middle" font-size="16px" font-weight="600" font-family="Inter, system-ui, Avenir, Helvetica, Arial, sans-serif" fill="#000000" aria-label="Expense Tracking"><tspan x="275" y="22" aria-hidden="true">Expense Tracking</tspan></text></g></svg></g><g transform="translate(-110, 660)"><svg width="100" height="150" viewBox="0 0 100 150" overflow="visible"><g transform="translate(5, 0)" stroke-width="2" stroke="#000000"><circle cx="45" cy="25" r="15" fill="#ffffff"></circle><line x1="45" y1="40" x2="45" y2="80"></line><line x1="15" y1="55" x2="75" y2="55"></line><line x1="45" y1="80" x2="15" y2="110"></line><line x1="45" y1="80" x2="75" y2="110"></line></g><text x="50" y="127.5" text-anchor="middle" dominant-baseline="middle" font-size="16px" font-weight="bold" font-family="Inter, system-ui, Avenir, Helvetica, Arial, sans-serif" fill="#000000" aria-label="User"><tspan x="50" y="127.5" aria-hidden="true">User</tspan></text></svg></g><g transform="translate(270, 20)"><svg width="160" height="100" viewBox="0 0 160 100" overflow="visible"><g><ellipse cx="80" cy="50" rx="80" ry="50" fill="#ffffff" stroke="#000000" stroke-width="2"></ellipse><text x="80" y="50" fill="#000000" dominant-baseline="middle" text-anchor="middle" font-weight="600" font-family="Inter, system-ui, Avenir, Helvetica, Arial, sans-serif" font-size="16px"><tspan x="80" y="40.5">Import </tspan><tspan x="80" y="59.5">Transactions</tspan></text></g></svg></g><g transform="translate(280, 150)"><svg width="160" height="100" viewBox="0 0 160 100" overflow="visible"><g><ellipse cx="80" cy="50" rx="80" ry="50" fill="#ffffff" stroke="#000000" stroke-width="2"></ellipse><text x="80" y="50" fill="#000000" dominant-baseline="middle" text-anchor="middle" font-weight="600" font-family="Inter, system-ui, Avenir, Helvetica, Arial, sans-serif" font-size="16px"><tspan x="80" y="40.5">View Portfolio </tspan><tspan x="80" y="59.5">Overview</tspan></text></g></svg></g><g transform="translate(780, 110)"><svg width="160" height="100" viewBox="0 0 160 100" overflow="visible"><g><ellipse cx="80" cy="50" rx="80" ry="50" fill="#ffffff" stroke="#000000" stroke-width="2"></ellipse><text x="80" y="50" fill="#000000" dominant-baseline="middle" text-anchor="middle" font-weight="600" font-family="Inter, system-ui, Avenir, Helvetica, Arial, sans-serif" font-size="16px"><tspan x="80" y="31">View </tspan><tspan x="80" y="50">Performance </tspan><tspan x="80" y="69">Charts</tspan></text></g></svg></g><g transform="translate(670, 250)"><svg width="160" height="100" viewBox="0 0 160 100" overflow="visible"><g><ellipse cx="80" cy="50" rx="80" ry="50" fill="#ffffff" stroke="#000000" stroke-width="2"></ellipse><text x="80" y="50" fill="#000000" dominant-baseline="middle" text-anchor="middle" font-weight="600" font-family="Inter, system-ui, Avenir, Helvetica, Arial, sans-serif" font-size="16px"><tspan x="80" y="31">View </tspan><tspan x="80" y="50">Performance </tspan><tspan x="80" y="69">Metrics</tspan></text></g></svg></g><g transform="translate(890, 280)"><svg width="160" height="100" viewBox="0 0 160 100" overflow="visible"><g><ellipse cx="80" cy="50" rx="80" ry="50" fill="#ffffff" stroke="#000000" stroke-width="2"></ellipse><text x="80" y="50" fill="#000000" dominant-baseline="middle" text-anchor="middle" font-weight="600" font-family="Inter, system-ui, Avenir, Helvetica, Arial, sans-serif" font-size="16px"><tspan x="80" y="40.5">View Portfolio </tspan><tspan x="80" y="59.5">Allocation</tspan></text></g></svg></g><g transform="translate(710, 400)"><svg width="160" height="100" viewBox="0 0 160 100" overflow="visible"><g><ellipse cx="80" cy="50" rx="80" ry="50" fill="#ffffff" stroke="#000000" stroke-width="2"></ellipse><text x="80" y="50" fill="#000000" dominant-baseline="middle" text-anchor="middle" font-weight="600" font-family="Inter, system-ui, Avenir, Helvetica, Arial, sans-serif" font-size="16px"><tspan x="80" y="31">Compare </tspan><tspan x="80" y="50">Portfolio Against </tspan><tspan x="80" y="69">Benchmark</tspan></text></g></svg></g><g transform="translate(890, 480)"><svg width="160" height="100" viewBox="0 0 160 100" overflow="visible"><g><ellipse cx="80" cy="50" rx="80" ry="50" fill="#ffffff" stroke="#000000" stroke-width="2"></ellipse><text x="80" y="50" fill="#000000" dominant-baseline="middle" text-anchor="middle" font-weight="600" font-family="Inter, system-ui, Avenir, Helvetica, Arial, sans-serif" font-size="16px"><tspan x="80" y="40.5">View Dividend </tspan><tspan x="80" y="59.5">Calendar</tspan></text></g></svg></g><g transform="translate(745, 685)"><svg width="160" height="100" viewBox="0 0 160 100" overflow="visible"><g><ellipse cx="80" cy="50" rx="80" ry="50" fill="#ffffff" stroke="#000000" stroke-width="2"></ellipse><text x="80" y="50" fill="#000000" dominant-baseline="middle" text-anchor="middle" font-weight="600" font-family="Inter, system-ui, Avenir, Helvetica, Arial, sans-serif" font-size="16px"><tspan x="80" y="50">Manage Watchlist</tspan></text></g></svg></g><g transform="translate(870, 810)"><svg width="160" height="100" viewBox="0 0 160 100" overflow="visible"><g><ellipse cx="80" cy="50" rx="80" ry="50" fill="#ffffff" stroke="#000000" stroke-width="2"></ellipse><text x="80" y="50" fill="#000000" dominant-baseline="middle" text-anchor="middle" font-weight="600" font-family="Inter, system-ui, Avenir, Helvetica, Arial, sans-serif" font-size="16px"><tspan x="80" y="50">View Asset Details</tspan></text></g></svg></g><g transform="translate(610, 810)"><svg width="160" height="100" viewBox="0 0 160 100" overflow="visible"><g><ellipse cx="80" cy="50" rx="80" ry="50" fill="#ffffff" stroke="#000000" stroke-width="2"></ellipse><text x="80" y="50" fill="#000000" dominant-baseline="middle" text-anchor="middle" font-weight="600" font-family="Inter, system-ui, Avenir, Helvetica, Arial, sans-serif" font-size="16px"><tspan x="80" y="50">Compare Assets</tspan></text></g></svg></g><g transform="translate(570, 80)"><svg width="160" height="100" viewBox="0 0 160 100" overflow="visible"><g><ellipse cx="80" cy="50" rx="80" ry="50" fill="#ffffff" stroke="#000000" stroke-width="2"></ellipse><text x="80" y="50" fill="#000000" dominant-baseline="middle" text-anchor="middle" font-weight="600" font-family="Inter, system-ui, Avenir, Helvetica, Arial, sans-serif" font-size="16px"><tspan x="80" y="50">Consult AI Advisor</tspan></text></g></svg></g><g transform="translate(475, 1275)"><svg width="160" height="100" viewBox="0 0 160 100" overflow="visible"><g><ellipse cx="80" cy="50" rx="80" ry="50" fill="#ffffff" stroke="#000000" stroke-width="2"></ellipse><text x="80" y="50" fill="#000000" dominant-baseline="middle" text-anchor="middle" font-weight="600" font-family="Inter, system-ui, Avenir, Helvetica, Arial, sans-serif" font-size="16px"><tspan x="80" y="40.5">Get Expense </tspan><tspan x="80" y="59.5">Suggestions</tspan></text></g></svg></g><g transform="translate(1040, 1120)"><svg width="160" height="100" viewBox="0 0 160 100" overflow="visible"><g><ellipse cx="80" cy="50" rx="80" ry="50" fill="#ffffff" stroke="#000000" stroke-width="2"></ellipse><text x="80" y="50" fill="#000000" dominant-baseline="middle" text-anchor="middle" font-weight="600" font-family="Inter, system-ui, Avenir, Helvetica, Arial, sans-serif" font-size="16px"><tspan x="80" y="40.5">Track Tax </tspan><tspan x="80" y="59.5">Exemption Usage</tspan></text></g></svg></g><g transform="translate(750, 1120)"><svg width="160" height="100" viewBox="0 0 160 100" overflow="visible"><g><ellipse cx="80" cy="50" rx="80" ry="50" fill="#ffffff" stroke="#000000" stroke-width="2"></ellipse><text x="80" y="50" fill="#000000" dominant-baseline="middle" text-anchor="middle" font-weight="600" font-family="Inter, system-ui, Avenir, Helvetica, Arial, sans-serif" font-size="16px"><tspan x="80" y="40.5">View Tax </tspan><tspan x="80" y="59.5">Summary</tspan></text></g></svg></g><g transform="translate(305, 1195)"><svg width="160" height="100" viewBox="0 0 160 100" overflow="visible"><g><ellipse cx="80" cy="50" rx="80" ry="50" fill="#ffffff" stroke="#000000" stroke-width="2"></ellipse><text x="80" y="50" fill="#000000" dominant-baseline="middle" text-anchor="middle" font-weight="600" font-family="Inter, system-ui, Avenir, Helvetica, Arial, sans-serif" font-size="16px"><tspan x="80" y="40.5">Categorise </tspan><tspan x="80" y="59.5">Transactions</tspan></text></g></svg></g><g transform="translate(125, 1275)"><svg width="160" height="100" viewBox="0 0 160 100" overflow="visible"><g><ellipse cx="80" cy="50" rx="80" ry="50" fill="#ffffff" stroke="#000000" stroke-width="2"></ellipse><text x="80" y="50" fill="#000000" dominant-baseline="middle" text-anchor="middle" font-weight="600" font-family="Inter, system-ui, Avenir, Helvetica, Arial, sans-serif" font-size="16px"><tspan x="80" y="40.5">View Spending </tspan><tspan x="80" y="59.5">Trends</tspan></text></g></svg></g><g transform="translate(1130, 810)"><svg width="160" height="100" viewBox="0 0 160 100" overflow="visible"><g><ellipse cx="80" cy="50" rx="80" ry="50" fill="#ffffff" stroke="#000000" stroke-width="2"></ellipse><text x="80" y="50" fill="#000000" dominant-baseline="middle" text-anchor="middle" font-weight="600" font-family="Inter, system-ui, Avenir, Helvetica, Arial, sans-serif" font-size="16px"><tspan x="80" y="50">Set Price Alert</tspan></text></g></svg></g><g transform="translate(1410, 810)"><svg width="160" height="100" viewBox="0 0 160 100" overflow="visible"><g><ellipse cx="80" cy="50" rx="80" ry="50" fill="#ffffff" stroke="#000000" stroke-width="2"></ellipse><text x="80" y="50" fill="#000000" dominant-baseline="middle" text-anchor="middle" font-weight="600" font-family="Inter, system-ui, Avenir, Helvetica, Arial, sans-serif" font-size="16px"><tspan x="80" y="40.5">Receive Price </tspan><tspan x="80" y="59.5">Alert Notification</tspan></text></g></svg></g><g transform="translate(1320, 1120)"><svg width="160" height="100" viewBox="0 0 160 100" overflow="visible"><g><ellipse cx="80" cy="50" rx="80" ry="50" fill="#ffffff" stroke="#000000" stroke-width="2"></ellipse><text x="80" y="50" fill="#000000" dominant-baseline="middle" text-anchor="middle" font-weight="600" font-family="Inter, system-ui, Avenir, Helvetica, Arial, sans-serif" font-size="16px"><tspan x="80" y="40.5">Receive Tax </tspan><tspan x="80" y="59.5">Reminder</tspan></text></g></svg></g></g><g><path id="e3b33eee-a01d-4e3e-b1cd-16fc765a6c12" d="M -9,690 L 279,200" fill="none" class="react-flow__edge-path" stroke-width="2" stroke="#000000" opacity="1" stroke-opacity="1"></path><path id="95903fb4-3c6c-4d72-b61e-d61777b0e697" d="M -9,690 L 779,160" fill="none" class="react-flow__edge-path" stroke-width="2" stroke="#000000" opacity="1" stroke-opacity="1"></path><path id="26f9d6a1-211e-4aa6-8f95-eeabd29a2fd9" d="M -9,690 L 669,300" fill="none" class="react-flow__edge-path" stroke-width="2" stroke="#000000" opacity="1" stroke-opacity="1"></path><path id="8889c195-ea65-4518-9c13-35a8d596349a" d="M -9,690 L 889,330" fill="none" class="react-flow__edge-path" stroke-width="2" stroke="#000000" opacity="1" stroke-opacity="1"></path><path id="1e38b419-2956-4289-b95e-8b06416387d0" d="M 269,70 L -9,690" fill="none" class="react-flow__edge-path" stroke-width="2" stroke="#000000" opacity="1" stroke-opacity="1"></path><path id="684643f5-79b7-4efd-8676-05cf7e9a2bd8" d="M -9,735 L 744,735" fill="none" class="react-flow__edge-path" stroke-width="2" stroke="#000000" opacity="1" stroke-opacity="1"></path><path id="0ec7aac1-4828-4491-927d-2aa9999009e8" d="M -9,735 L 609,860" fill="none" class="react-flow__edge-path" stroke-width="2" stroke="#000000" opacity="1" stroke-opacity="1"></path><path id="4273a820-b836-406e-8afa-bb3cfbec655e" d="M 749,1170 L -9,780" fill="none" class="react-flow__edge-path" stroke-width="2" stroke="#000000" opacity="1" stroke-opacity="1"></path><path id="255a3072-7c70-4678-bfc8-e96a0369a31f" d="M 304,1245 L -30,811" fill="none" class="react-flow__edge-path" stroke-width="2" stroke="#000000" opacity="1" stroke-opacity="1"></path><path id="e750a346-bbf1-4ed9-b100-25ccb5f56d7b" d="M 124,1325 L -30,811" fill="none" class="react-flow__edge-path" stroke-width="2" stroke="#000000" opacity="1" stroke-opacity="1"></path><path id="b73ed76d-b63d-4414-9c59-ae606ab05860" d="M 771,860 L 780,860 M 860,860 L 869,860" fill="none" class="react-flow__edge-path" stroke-width="2" stroke="#000000" opacity="1" stroke-opacity="1" stroke-dasharray="10"></path><path d="M851,852 L869,860 L851,868" fill="none" stroke="#000000" stroke-width="1.5" stroke-linecap="round" stroke-linejoin="round" data-inline-marker="true"></path><text x="820" y="860" text-anchor="middle" dominant-baseline="middle" transform="rotate(0, 820, 860)" class="edge-label" style="pointer-events: none" font-size="12px" fill="#000000" font-style="italic" font-weight="bold" font-family="Inter, system-ui, Avenir, Helvetica, Arial, sans-serif">&lt;&lt;include&gt;&gt;</text><path id="c804a959-48c8-4913-8f57-67c76c899f33" d="M 1129,860 L 1120,860 M 1040,860 L 1031,860" fill="none" class="react-flow__edge-path" stroke-width="2" stroke="#000000" opacity="1" stroke-opacity="1" stroke-dasharray="10"></path><path d="M1049,868 L1031,860 L1049,852" fill="none" stroke="#000000" stroke-width="1.5" stroke-linecap="round" stroke-linejoin="round" data-inline-marker="true"></path><text x="1080" y="860" text-anchor="middle" dominant-baseline="middle" transform="rotate(360, 1080, 860)" class="edge-label" style="pointer-events: none" font-size="12px" fill="#000000" font-style="italic" font-weight="bold" font-family="Inter, system-ui, Avenir, Helvetica, Arial, sans-serif">&lt;&lt;extend&gt;&gt;</text><path id="98d8a25b-c975-4314-a279-ea75bf6623d2" d="M 1409,860 L 1390,860 M 1310,860 L 1291,860" fill="none" class="react-flow__edge-path" stroke-width="2" stroke="#000000" opacity="1" stroke-opacity="1" stroke-dasharray="10"></path><path d="M1309,868 L1291,860 L1309,852" fill="none" stroke="#000000" stroke-width="1.5" stroke-linecap="round" stroke-linejoin="round" data-inline-marker="true"></path><text x="1350" y="860" text-anchor="middle" dominant-baseline="middle" transform="rotate(360, 1350, 860)" class="edge-label" style="pointer-events: none" font-size="12px" fill="#000000" font-style="italic" font-weight="bold" font-family="Inter, system-ui, Avenir, Helvetica, Arial, sans-serif">&lt;&lt;extend&gt;&gt;</text><path id="92f01fdf-090a-49c2-8696-4e53baabd0ed" d="M 474,1325 L 420,1325 M 340,1325 L 286,1325" fill="none" class="react-flow__edge-path" stroke-width="2" stroke="#000000" opacity="1" stroke-opacity="1" stroke-dasharray="10"></path><path d="M304,1333 L286,1325 L304,1317" fill="none" stroke="#000000" stroke-width="1.5" stroke-linecap="round" stroke-linejoin="round" data-inline-marker="true"></path><text x="380" y="1325" text-anchor="middle" dominant-baseline="middle" transform="rotate(360, 380, 1325)" class="edge-label" style="pointer-events: none" font-size="12px" fill="#000000" font-style="italic" font-weight="bold" font-family="Inter, system-ui, Avenir, Helvetica, Arial, sans-serif">&lt;&lt;extend&gt;&gt;</text><path id="5b3c8d64-7db6-46d8-a839-4b2e57982fb5" d="M 1319,1170 L 1300,1170 M 1220,1170 L 1201,1170" fill="none" class="react-flow__edge-path" stroke-width="2" stroke="#000000" opacity="1" stroke-opacity="1" stroke-dasharray="10"></path><path d="M1219,1178 L1201,1170 L1219,1162" fill="none" stroke="#000000" stroke-width="1.5" stroke-linecap="round" stroke-linejoin="round" data-inline-marker="true"></path><text x="1260" y="1170" text-anchor="middle" dominant-baseline="middle" transform="rotate(360, 1260, 1170)" class="edge-label" style="pointer-events: none" font-size="12px" fill="#000000" font-style="italic" font-weight="bold" font-family="Inter, system-ui, Avenir, Helvetica, Arial, sans-serif">&lt;&lt;extend&gt;&gt;</text><path id="447f3d3f-c71e-4709-87fe-0c20b0e152a8" d="M 911,1170 L 935,1170 M 1015,1170 L 1039,1170" fill="none" class="react-flow__edge-path" stroke-width="2" stroke="#000000" opacity="1" stroke-opacity="1" stroke-dasharray="10"></path><path d="M1021,1162 L1039,1170 L1021,1178" fill="none" stroke="#000000" stroke-width="1.5" stroke-linecap="round" stroke-linejoin="round" data-inline-marker="true"></path><text x="975" y="1170" text-anchor="middle" dominant-baseline="middle" transform="rotate(0, 975, 1170)" class="edge-label" style="pointer-events: none" font-size="12px" fill="#000000" font-style="italic" font-weight="bold" font-family="Inter, system-ui, Avenir, Helvetica, Arial, sans-serif">&lt;&lt;include&gt;&gt;</text><path id="a51279ef-c12d-4355-884b-ba82690aa36f" d="M 889,530 L -9,690" fill="none" class="react-flow__edge-path" stroke-width="2" stroke="#000000" opacity="1" stroke-opacity="1"></path><path id="1e35079d-3372-4539-b617-512853bccaf9" d="M 709,450 L -9,690" fill="none" class="react-flow__edge-path" stroke-width="2" stroke="#000000" opacity="1" stroke-opacity="1"></path><path id="cc1a2b3d-4e5f-6789-abcd-ef0123456701" d="M -9,690 L 569,130" fill="none" class="react-flow__edge-path" stroke-width="2" stroke="#000000" opacity="1" stroke-opacity="1"></path><path id="cc1a2b3d-4e5f-6789-abcd-ef0123456702" d="M -9,735 L 950,809" fill="none" class="react-flow__edge-path" stroke-width="2" stroke="#000000" opacity="1" stroke-opacity="1"></path><path id="cc1a2b3d-4e5f-6789-abcd-ef0123456703" d="M -9,780 L 1120,1119" fill="none" class="react-flow__edge-path" stroke-width="2" stroke="#000000" opacity="1" stroke-opacity="1"></path></g></svg>