<svg xmlns="http://www.w3.org/2000/svg" viewBox="-150 -100 1830 1580" width="1830" height="1580" shape-rendering="geometricPrecision"><style>
    text {
      font-family: Inter, system-ui, Avenir, Helvetica, Arial, sans-serif;
    }
  </style><g><g transform="translate(60, -40)"><svg width="1560" height="1460" viewBox="0 0 1560 1460" overflow="visible"><g><rect stroke="#000000" fill="#ffffff" stroke-width="2" x="0" y="0" width="1560" height="1460"></rect><text x="780" y="22" text-anchor="middle" dominant-baseline="middle" font-size="16px" font-weight="600" font-family="Inter, system-ui, Avenir, Helvetica, Arial, sans-serif" fill="#000000" aria-label="Kontor"><tspan x="780" y="22" aria-hidden="true">Kontor</tspan></text></g></svg></g><g transform="translate(230, 0)"><svg width="860" height="620" viewBox="0 0 860 620" overflow="visible"><g><rect stroke="#000000" fill="#ffffff" stroke-width="2" x="0" y="0" width="860" height="620"></rect><text x="430" y="22" text-anchor="middle" dominant-baseline="middle" font-size="16px" font-weight="600" font-family="Inter, system-ui, Avenir, Helvetica, Arial, sans-serif" fill="#000000" aria-label="Portfolio Management"><tspan x="430" y="22" aria-hidden="true">Portfolio Management</tspan></text></g></svg></g><g transform="translate(780, 660)"><svg width="780" height="290" viewBox="0 0 780 290" overflow="visible"><g><rect stroke="#000000" fill="#ffffff" stroke-width="2" x="0" y="0" width="780" height="290"></rect><text x="390" y="22" text-anchor="middle" dominant-baseline="middle" font-size="16px" font-weight="600" font-family="Inter, system-ui, Avenir, Helvetica, Arial, sans-serif" fill="#000000" aria-label="Financial Research"><tspan x="390" y="22" aria-hidden="true">Financial Research</tspan></text></g></svg></g><g transform="translate(830, 1070)"><svg width="730" height="200" viewBox="0 0 730 200" overflow="visible"><g><rect stroke="#000000" fill="#ffffff" stroke-width="2" x="0" y="0" width="730" height="200"></rect><text x="365" y="22" text-anchor="middle" dominant-baseline="middle" font-size="16px" font-weight="600" font-family="Inter, system-ui, Avenir, Helvetica, Arial, sans-serif" fill="#000000" aria-label="Tax Reporting"><tspan x="365" y="22" aria-hidden="true">Tax Reporting</tspan></text></g></svg></g><g transform="translate(100, 1150)"><svg width="660" height="240" viewBox="0 0 660 240" overflow="visible"><g><rect stroke="#000000" fill="#ffffff" stroke-width="2" x="0" y="0" width="660" height="240"></rect><text x="330" y="22" text-anchor="middle" dominant-baseline="middle" font-size="16px" font-weight="600" font-family="Inter, system-ui, Avenir, Helvetica, Arial, sans-serif" fill="#000000" aria-label="Expense Tracking"><tspan x="330" y="22" aria-hidden="true">Expense Tracking</tspan></text></g></svg></g><g transform="translate(-110, 660)"><svg width="100" height="150" viewBox="0 0 100 150" overflow="visible"><g transform="translate(5, 0)" stroke-width="2" stroke="#000000"><circle cx="45" cy="25" r="15" fill="#ffffff"></circle><line x1="45" y1="40" x2="45" y2="80"></line><line x1="15" y1="55" x2="75" y2="55"></line><line x1="45" y1="80" x2="15" y2="110"></line><line x1="45" y1="80" x2="75" y2="110"></line></g><text x="50" y="127.5" text-anchor="middle" dominant-baseline="middle" font-size="16px" font-weight="bold" font-family="Inter, system-ui, Avenir, Helvetica, Arial, sans-serif" fill="#000000" aria-label="User"><tspan x="50" y="127.5" aria-hidden="true">User</tspan></text></svg></g><g transform="translate(270, 20)"><svg width="160" height="100" viewBox="0 0 160 100" overflow="visible"><g><ellipse cx="80" cy="50" rx="80" ry="50" fill="#ffffff" stroke="#000000" stroke-width="2"></ellipse><text x="80" y="50" fill="#000000" dominant-baseline="middle" text-anchor="middle" font-weight="600" font-family="Inter, system-ui, Avenir, Helvetica, Arial, sans-serif" font-size="16px"><tspan x="80" y="40.5">Import </tspan><tspan x="80" y="59.5">Transactions</tspan></text></g></svg></g><g transform="translate(280, 150)"><svg width="160" height="100" viewBox="0 0 160 100" overflow="visible"><g><ellipse cx="80" cy="50" rx="80" ry="50" fill="#ffffff" stroke="#000000" stroke-width="2"></ellipse><text x="80" y="50" fill="#000000" dominant-baseline="middle" text-anchor="middle" font-weight="600" font-family="Inter, system-ui, Avenir, Helvetica, Arial, sans-serif" font-size="16px"><tspan x="80" y="40.5">View Portfolio </tspan><tspan x="80" y="59.5">Overview</tspan></text></g></svg></g><g transform="translate(780, 110)"><svg width="160" height="100" viewBox="0 0 160 100" overflow="visible"><g><ellipse cx="80" cy="50" rx="80" ry="50" fill="#ffffff" stroke="#000000" stroke-width="2"></ellipse><text x="80" y="50" fill="#000000" dominant-baseline="middle" text-anchor="middle" font-weight="600" font-family="Inter, system-ui, Avenir, Helvetica, Arial, sans-serif" font-size="16px"><tspan x="80" y="31">View </tspan><tspan x="80" y="50">Performance </tspan><tspan x="80" y="69">Charts</tspan></text></g></svg></g><g transform="translate(670, 250)"><svg width="160" height="100" viewBox="0 0 160 100" overflow="visible"><g><ellipse cx="80" cy="50" rx="80" ry="50" fill="#ffffff" stroke="#000000" stroke-width="2"></ellipse><text x="80" y="50" fill="#000000" dominant-baseline="middle" text-anchor="middle" font-weight="600" font-family="Inter, system-ui, Avenir, Helvetica, Arial, sans-serif" font-size="16px"><tspan x="80" y="31">View </tspan><tspan x="80" y="50">Performance </tspan><tspan x="80" y="69">Metrics</tspan></text></g></svg></g><g transform="translate(890, 280)"><svg width="160" height="100" viewBox="0 0 160 100" overflow="visible"><g><ellipse cx="80" cy="50" rx="80" ry="50" fill="#ffffff" stroke="#000000" stroke-width="2"></ellipse><text x="80" y="50" fill="#000000" dominant-baseline="middle" text-anchor="middle" font-weight="600" font-family="Inter, system-ui, Avenir, Helvetica, Arial, sans-serif" font-size="16px"><tspan x="80" y="40.5">View Portfolio </tspan><tspan x="80" y="59.5">Allocation</tspan></text></g></svg></g><g transform="translate(710, 400)"><svg width="160" height="100" viewBox="0 0 160 100" overflow="visible"><g><ellipse cx="80" cy="50" rx="80" ry="50" fill="#ffffff" stroke="#000000" stroke-width="2"></ellipse><text x="80" y="50" fill="#000000" dominant-baseline="middle" text-anchor="middle" font-weight="600" font-family="Inter, system-ui, Avenir, Helvetica, Arial, sans-serif" font-size="16px"><tspan x="80" y="31">Compare </tspan><tspan x="80" y="50">Portfolio Against </tspan><tspan x="80" y="69">Benchmark</tspan></text></g></svg></g><g transform="translate(890, 480)"><svg width="160" height="100" viewBox="0 0 160 100" overflow="visible"><g><ellipse cx="80" cy="50" rx="80" ry="50" fill="#ffffff" stroke="#000000" stroke-width="2"></ellipse><text x="80" y="50" fill="#000000" dominant-baseline="middle" text-anchor="middle" font-weight="600" font-family="Inter, system-ui, Avenir, Helvetica, Arial, sans-serif" font-size="16px"><tspan x="80" y="40.5">View Dividend </tspan><tspan x="80" y="59.5">Calendar</tspan></text></g></svg></g><g transform="translate(980, 670)"><svg width="160" height="100" viewBox="0 0 160 100" overflow="visible"><g><ellipse cx="80" cy="50" rx="80" ry="50" fill="#ffffff" stroke="#000000" stroke-width="2"></ellipse><text x="80" y="50" fill="#000000" dominant-baseline="middle" text-anchor="middle" font-weight="600" font-family="Inter, system-ui, Avenir, Helvetica, Arial, sans-serif" font-size="16px"><tspan x="80" y="50">Manage Watchlist</tspan></text></g></svg></g><g transform="translate(1120, 830)"><svg width="160" height="100" viewBox="0 0 160 100" overflow="visible"><g><ellipse cx="80" cy="50" rx="80" ry="50" fill="#ffffff" stroke="#000000" stroke-width="2"></ellipse><text x="80" y="50" fill="#000000" dominant-baseline="middle" text-anchor="middle" font-weight="600" font-family="Inter, system-ui, Avenir, Helvetica, Arial, sans-serif" font-size="16px"><tspan x="80" y="50">View Asset Details</tspan></text></g></svg></g><g transform="translate(840, 830)"><svg width="160" height="100" viewBox="0 0 160 100" overflow="visible"><g><ellipse cx="80" cy="50" rx="80" ry="50" fill="#ffffff" stroke="#000000" stroke-width="2"></ellipse><text x="80" y="50" fill="#000000" dominant-baseline="middle" text-anchor="middle" font-weight="600" font-family="Inter, system-ui, Avenir, Helvetica, Arial, sans-serif" font-size="16px"><tspan x="80" y="50">Compare Assets</tspan></text></g></svg></g><g transform="translate(570, 80)"><svg width="160" height="100" viewBox="0 0 160 100" overflow="visible"><g><ellipse cx="80" cy="50" rx="80" ry="50" fill="#ffffff" stroke="#000000" stroke-width="2"></ellipse><text x="80" y="50" fill="#000000" dominant-baseline="middle" text-anchor="middle" font-weight="600" font-family="Inter, system-ui, Avenir, Helvetica, Arial, sans-serif" font-size="16px"><tspan x="80" y="50">Consult AI Advisor</tspan></text></g></svg></g><g transform="translate(570, 1260)"><svg width="160" height="100" viewBox="0 0 160 100" overflow="visible"><g><ellipse cx="80" cy="50" rx="80" ry="50" fill="#ffffff" stroke="#000000" stroke-width="2"></ellipse><text x="80" y="50" fill="#000000" dominant-baseline="middle" text-anchor="middle" font-weight="600" font-family="Inter, system-ui, Avenir, Helvetica, Arial, sans-serif" font-size="16px"><tspan x="80" y="40.5">Get Expense </tspan><tspan x="80" y="59.5">Suggestions</tspan></text></g></svg></g><g transform="translate(1380, 1130)"><svg width="160" height="100" viewBox="0 0 160 100" overflow="visible"><g><ellipse cx="80" cy="50" rx="80" ry="50" fill="#ffffff" stroke="#000000" stroke-width="2"></ellipse><text x="80" y="50" fill="#000000" dominant-baseline="middle" text-anchor="middle" font-weight="600" font-family="Inter, system-ui, Avenir, Helvetica, Arial, sans-serif" font-size="16px"><tspan x="80" y="40.5">Track Tax </tspan><tspan x="80" y="59.5">Exemption Usage</tspan></text></g></svg></g><g transform="translate(850, 1130)"><svg width="160" height="100" viewBox="0 0 160 100" overflow="visible"><g><ellipse cx="80" cy="50" rx="80" ry="50" fill="#ffffff" stroke="#000000" stroke-width="2"></ellipse><text x="80" y="50" fill="#000000" dominant-baseline="middle" text-anchor="middle" font-weight="600" font-family="Inter, system-ui, Avenir, Helvetica, Arial, sans-serif" font-size="16px"><tspan x="80" y="40.5">View Tax </tspan><tspan x="80" y="59.5">Summary</tspan></text></g></svg></g><g transform="translate(360, 1270)"><svg width="160" height="100" viewBox="0 0 160 100" overflow="visible"><g><ellipse cx="80" cy="50" rx="80" ry="50" fill="#ffffff" stroke="#000000" stroke-width="2"></ellipse><text x="80" y="50" fill="#000000" dominant-baseline="middle" text-anchor="middle" font-weight="600" font-family="Inter, system-ui, Avenir, Helvetica, Arial, sans-serif" font-size="16px"><tspan x="80" y="40.5">Categorise </tspan><tspan x="80" y="59.5">Transactions</tspan></text></g></svg></g><g transform="translate(125, 1275)"><svg width="160" height="100" viewBox="0 0 160 100" overflow="visible"><g><ellipse cx="80" cy="50" rx="80" ry="50" fill="#ffffff" stroke="#000000" stroke-width="2"></ellipse><text x="80" y="50" fill="#000000" dominant-baseline="middle" text-anchor="middle" font-weight="600" font-family="Inter, system-ui, Avenir, Helvetica, Arial, sans-serif" font-size="16px"><tspan x="80" y="40.5">View Spending </tspan><tspan x="80" y="59.5">Trends</tspan></text></g></svg></g><g transform="translate(1360, 750)"><svg width="160" height="100" viewBox="0 0 160 100" overflow="visible"><g><ellipse cx="80" cy="50" rx="80" ry="50" fill="#ffffff" stroke="#000000" stroke-width="2"></ellipse><text x="80" y="50" fill="#000000" dominant-baseline="middle" text-anchor="middle" font-weight="600" font-family="Inter, system-ui, Avenir, Helvetica, Arial, sans-serif" font-size="16px"><tspan x="80" y="50">Set Price Alert</tspan></text></g></svg></g></g><g><path id="e3b33eee-a01d-4e3e-b1cd-16fc765a6c12" d="M -9,690 L 279,200" fill="none" class="react-flow__edge-path" stroke-width="2" stroke="#000000" opacity="1" stroke-opacity="1"></path><path id="95903fb4-3c6c-4d72-b61e-d61777b0e697" d="M -9,690 L 779,160" fill="none" class="react-flow__edge-path" stroke-width="2" stroke="#000000" opacity="1" stroke-opacity="1"></path><path id="26f9d6a1-211e-4aa6-8f95-eeabd29a2fd9" d="M -9,690 L 669,300" fill="none" class="react-flow__edge-path" stroke-width="2" stroke="#000000" opacity="1" stroke-opacity="1"></path><path id="8889c195-ea65-4518-9c13-35a8d596349a" d="M -9,690 L 889,330" fill="none" class="react-flow__edge-path" stroke-width="2" stroke="#000000" opacity="1" stroke-opacity="1"></path><path id="1e38b419-2956-4289-b95e-8b06416387d0" d="M 269,70 L -9,690" fill="none" class="react-flow__edge-path" stroke-width="2" stroke="#000000" opacity="1" stroke-opacity="1"></path><path id="684643f5-79b7-4efd-8676-05cf7e9a2bd8" d="M -9,735 L 979,720" fill="none" class="react-flow__edge-path" stroke-width="2" stroke="#000000" opacity="1" stroke-opacity="1"></path><path id="0ec7aac1-4828-4491-927d-2aa9999009e8" d="M -9,735 L 839,880" fill="none" class="react-flow__edge-path" stroke-width="2" stroke="#000000" opacity="1" stroke-opacity="1"></path><path id="4273a820-b836-406e-8afa-bb3cfbec655e" d="M 849,1180 L -9,780" fill="none" class="react-flow__edge-path" stroke-width="2" stroke="#000000" opacity="1" stroke-opacity="1"></path><path id="255a3072-7c70-4678-bfc8-e96a0369a31f" d="M 440,1269 L -30,811" fill="none" class="react-flow__edge-path" stroke-width="2" stroke="#000000" opacity="1" stroke-opacity="1"></path><path id="e750a346-bbf1-4ed9-b100-25ccb5f56d7b" d="M 205,1274 L -30,811" fill="none" class="react-flow__edge-path" stroke-width="2" stroke="#000000" opacity="1" stroke-opacity="1"></path><path id="b73ed76d-b63d-4414-9c59-ae606ab05860" d="M 1001,880 L 1020,880 M 1100,880 L 1119,880" fill="none" class="react-flow__edge-path" stroke-width="2" stroke="#000000" opacity="1" stroke-opacity="1" stroke-dasharray="10"></path><path d="M1101,872 L1119,880 L1101,888" fill="none" stroke="#000000" stroke-width="1.5" stroke-linecap="round" stroke-linejoin="round" data-inline-marker="true"></path><text x="1060" y="880" text-anchor="middle" dominant-baseline="middle" transform="rotate(0, 1060, 880)" class="edge-label" style="pointer-events: none" font-size="12px" fill="#000000" font-style="italic" font-weight="bold" font-family="Inter, system-ui, Avenir, Helvetica, Arial, sans-serif">&lt;&lt;include&gt;&gt;</text><path id="447f3d3f-c71e-4709-87fe-0c20b0e152a8" d="M 1011,1180 L 1155,1180 M 1235,1180 L 1379,1180" fill="none" class="react-flow__edge-path" stroke-width="2" stroke="#000000" opacity="1" stroke-opacity="1" stroke-dasharray="10"></path><path d="M1361,1172 L1379,1180 L1361,1188" fill="none" stroke="#000000" stroke-width="1.5" stroke-linecap="round" stroke-linejoin="round" data-inline-marker="true"></path><text x="1195" y="1180" text-anchor="middle" dominant-baseline="middle" transform="rotate(0, 1195, 1180)" class="edge-label" style="pointer-events: none" font-size="12px" fill="#000000" font-style="italic" font-weight="bold" font-family="Inter, system-ui, Avenir, Helvetica, Arial, sans-serif">&lt;&lt;include&gt;&gt;</text><path id="a51279ef-c12d-4355-884b-ba82690aa36f" d="M 889,530 L -9,690" fill="none" class="react-flow__edge-path" stroke-width="2" stroke="#000000" opacity="1" stroke-opacity="1"></path><path id="1e35079d-3372-4539-b617-512853bccaf9" d="M 709,450 L -9,690" fill="none" class="react-flow__edge-path" stroke-width="2" stroke="#000000" opacity="1" stroke-opacity="1"></path><path id="cc1a2b3d-4e5f-6789-abcd-ef0123456701" d="M -9,690 L 569,130" fill="none" class="react-flow__edge-path" stroke-width="2" stroke="#000000" opacity="1" stroke-opacity="1"></path><path id="cc1a2b3d-4e5f-6789-abcd-ef0123456702" d="M -9,735 L 1200,829" fill="none" class="react-flow__edge-path" stroke-width="2" stroke="#000000" opacity="1" stroke-opacity="1"></path><path id="cc1a2b3d-4e5f-6789-abcd-ef0123456703" d="M -9,780 L 1460,1129" fill="none" class="react-flow__edge-path" stroke-width="2" stroke="#000000" opacity="1" stroke-opacity="1"></path><path id="4282501b-d4de-42b4-9d7a-3fcf3b2c3b62" d="M 1359,800 L -9,735" fill="none" class="react-flow__edge-path" stroke-width="2" stroke="#000000" opacity="1" stroke-opacity="1"></path><path id="0ae9ca08-b004-4309-92cc-ac355e58c4e2" d="M 1440,851 L 1400,859 M 1322,873 L 1281,880" fill="none" class="react-flow__edge-path" stroke-width="2" stroke="#000000" opacity="1" stroke-opacity="1" stroke-dasharray="10"></path><path d="M1300,885 L1281,880 L1297,869" fill="none" stroke="#000000" stroke-width="1.5" stroke-linecap="round" stroke-linejoin="round" data-inline-marker="true"></path><text x="1360.5" y="865.5" text-anchor="middle" dominant-baseline="middle" transform="rotate(349.66344585350066, 1360.5, 865.5)" class="edge-label" style="pointer-events: none" font-size="12px" fill="#000000" font-style="italic" font-weight="bold" font-family="Inter, system-ui, Avenir, Helvetica, Arial, sans-serif">&lt;&lt;include&gt;&gt;</text><path id="cc28747a-0fea-4629-a3bb-e415be08cb7b" d="M 650,1259 L -30,811" fill="none" class="react-flow__edge-path" stroke-width="2" stroke="#000000" opacity="1" stroke-opacity="1"></path></g></svg>